<mxfile host="app.diagrams.net" modified="2021-01-11T12:52:21.158Z" agent="5.0 (Windows NT 10.0; Win64; x64) AppleWebKit/537.36 (KHTML, like Gecko) Chrome/78.0.3904.70 Safari/537.36" etag="tzwWKJE-_HRUzX6IYAgE" version="14.1.8" type="github">
  <diagram id="OL1ewcrxCQJXVnPWYqr8" name="第 1 页">
    <mxGraphModel dx="1422" dy="794" grid="1" gridSize="10" guides="1" tooltips="1" connect="1" arrows="1" fold="1" page="1" pageScale="1" pageWidth="827" pageHeight="1169" math="0" shadow="0">
      <root>
        <mxCell id="0" />
        <mxCell id="1" parent="0" />
        <mxCell id="s9gYU_3_RzJb2mR_KAjM-1" value="" style="rounded=0;whiteSpace=wrap;html=1;" vertex="1" parent="1">
          <mxGeometry x="40" y="40" width="1060" height="610" as="geometry" />
        </mxCell>
        <mxCell id="s9gYU_3_RzJb2mR_KAjM-2" value="" style="rounded=0;whiteSpace=wrap;html=1;dashed=1;" vertex="1" parent="1">
          <mxGeometry x="540" y="100" width="530" height="350" as="geometry" />
        </mxCell>
        <mxCell id="s9gYU_3_RzJb2mR_KAjM-3" value="中心网关技术架构图" style="text;html=1;strokeColor=none;fillColor=none;align=center;verticalAlign=middle;whiteSpace=wrap;rounded=0;fontStyle=1;fontSize=14;" vertex="1" parent="1">
          <mxGeometry x="50" y="50" width="150" height="20" as="geometry" />
        </mxCell>
        <mxCell id="s9gYU_3_RzJb2mR_KAjM-4" value="" style="rounded=0;whiteSpace=wrap;html=1;dashed=1;fontSize=14;" vertex="1" parent="1">
          <mxGeometry x="540" y="510" width="200" height="120" as="geometry" />
        </mxCell>
        <mxCell id="s9gYU_3_RzJb2mR_KAjM-5" value="MongoDB" style="shape=cylinder3;whiteSpace=wrap;html=1;boundedLbl=1;backgroundOutline=1;size=15;fontSize=14;" vertex="1" parent="1">
          <mxGeometry x="607" y="544" width="90" height="65" as="geometry" />
        </mxCell>
        <mxCell id="s9gYU_3_RzJb2mR_KAjM-6" value="" style="rounded=0;whiteSpace=wrap;html=1;fontSize=14;dashed=1;" vertex="1" parent="1">
          <mxGeometry x="560" y="146" width="150" height="90" as="geometry" />
        </mxCell>
        <mxCell id="s9gYU_3_RzJb2mR_KAjM-7" value="API管理服务" style="text;html=1;strokeColor=none;fillColor=none;align=center;verticalAlign=middle;whiteSpace=wrap;rounded=0;dashed=1;fontSize=14;" vertex="1" parent="1">
          <mxGeometry x="560" y="156" width="95" height="20" as="geometry" />
        </mxCell>
        <mxCell id="s9gYU_3_RzJb2mR_KAjM-25" style="edgeStyle=orthogonalEdgeStyle;rounded=0;orthogonalLoop=1;jettySize=auto;html=1;entryX=0;entryY=0.179;entryDx=0;entryDy=0;entryPerimeter=0;fontSize=14;" edge="1" parent="1" source="s9gYU_3_RzJb2mR_KAjM-8" target="s9gYU_3_RzJb2mR_KAjM-11">
          <mxGeometry relative="1" as="geometry" />
        </mxCell>
        <mxCell id="s9gYU_3_RzJb2mR_KAjM-8" value="系统管理员" style="shape=image;verticalLabelPosition=bottom;verticalAlign=top;imageAspect=0;aspect=fixed;image=data:image/png,iVBORw0KGgoAAAANSUhEUgAAADIAAAAyCAYAAAAeP4ixAAAIxUlEQVRoQ+1ZfUwU6Rl/3hlhQYzKp+ihUjGVJlYkhsSPNEqtBK6wO8vObqWcgHJHa815kFgT48dRP/4xTY5rS4OWUgGhKTvrzqw0eGAiNippjJF6aUpiNKgcAp6iIqSy7LzNs9kl7O7s7gxCL730+Wdh5vn6vc/7Ph/vEPiWEFGDw2q15hBCfkII2UUp1RFC/kYpvcTz/J/VyKvlEQThAwAwAsAPAODfANDFsuxfjEZjZzgdIYGIovh9p9P5a0JIThBFLyilH5jN5o5whkK9t1qtBkJIEwAsDsL3hSzLv7RYLF8G0xMUiM1mS6GUouDScE5ipEwm09VwfErvBUF4HwD+Gk6WEDIKABtMJtOAEm8oIA2U0r3hDHje/53n+c0qeX3YBEH4GgDiVco28DxfrhqIzWZbTSntV6nczUYpLTCbze1aZDxbStQiI8vyaovF8thfRjEiNpvtY0rpb7QYAIA/8jz/oRYZq9XaQAhRG3W3akLIQZPJ9FtVQBobG7tjYmK2a3HK6XQOFhUVvadFpqWlZVin0yVpkXn79m1HcXExnisfUoxITU3NQEpKiianXr16NVVeXh6hxan6+nq6dGnYXOKjcnBw8MHBgwfXqgJy9OjRLzMzM9drcer+/fsTR44cidEic+bMGbpu3TotInDv3r2ekydPblUFpLi4uNVoNBZpsXDt2rWB2tralTNlBEHgCCEZ+EyW5V6z2SzNfL9///7RnTt3agqJKIr1Fy9e/EgVEIPB8LOsrKy69PR0VViGhoagq6urWZKkEhSw2WxllNLPFGoQZsIqnufdmcpgMFh37drFJycnq7LT19cHt2/fLpUkCYtn+DOSn5//XnR09EB+fj7ExITfLR0dHfDs2TOLw+Gw2my2Sg+IoM5hpjKZTBcMBkNJYmJiY25ublgg4+Pj0N7eDlNTUwl2u/25KiCe1WpauHDhnk2bNkFqaqqioeHhYbh79y6CeCtJUpTVat1BCLkW1isAYFn2O0ajsd9gMNDExETIzMyEZcuWKYr29/fDnTt3YGJi4pwkST9XYgpa2Y1G43dlWf4XADDx8fFuMMuXLweGYWBkZAQeP34Mg4ODbp3YUIqi2CYIAm4ZgxogANDI83yZwWDAOtKAMitWrIBVq1a5AblcLnj69CkgiOfP3QEYc7lc32tvb/9KExBPVH4EAM0AEHQTU0orHA7HH5BfEASqEgSyveR5Phb/4DguZAGmlD5kWbbUbrffCKZfVRuv1+srCCGYxXZ4FI0AwOeEkN+LovgSn1VXVzPr1693aQACPM9P29fr9csIIb8AgAMzeq9OSmmrw+FoDKdXFRCvkry8PJ1Op4v2Oj9TOTpSUlIyFM6g973T6YSioiIG2zR/mYKCgoSoqKhRq9WqemEUgdjt9lSn07maZVlvBEL59wgzUF5eXmJhYeFIbKx7t4SlJ0+eQFVVlRtIW1vbRgBYEkqIYZiNWIsiIiIeYZLw5/UB4sn/nwKAcppSttTL83wmvjp06NDE5s2bo8OiAICrV69+XVdXl+g5W7g9QwLx04lAqnmen95y00A0Zhwfvd5Uqtfr67Ozs8tXrvQp8AG4Hjx4ALdu3aqTJGk/RoNhmLtqwCvwiDzP42gMbiCCIFwAgNJZKsNZ5Fdms7m6oKBgO8Mw3VlZWRCsK/BUZ0zjW+12e48gCDUA8MlsbQPABZ7n9xItRSyYMUrp6wULFmTg3uU4ro1SasazsnbtWvCeGSyeGIk3b95g3WkQRbH8HaMx7Q6lNJu8azRmgOtlWTa7tbV1YnJy8ncAENDYeXhrJUn62G63L3G5XNgF4EF/V2okbW1tbxiGCd9QqTOFYIwYGb1en0kI+Sml9IcMw7gopV2yLLdevnz5n5gVXS6XfY5A4NYew4hoqcaq4FBKayiljRaLpXemAAKYmpr6hBBSqUqRBqZ5ATLT/sOHD3+8aNGisfj4+E6WZaM0+KaJ9Z2BeA8x/uJBDihUhGTjM0ppQFeMzWFcXBykpaVNJwVN3s9gDgCCmQUHnXBzCM4HN2/eBAQQikgIIDPlENS2bdtU2UUfN2zY4GM2AEhnZydkZGQEnQ1QenR0FJBvcnIS/31ECME61A0A/aIoBrQPHMfhOKuUnbCD2EgpLcPKHhkZCTk5OSGjgwuHtvfs2RMayI0bN75IT0/fnpCQoLifvZPa5OTkKzy0oigiCDdhTaKUqk4eFovluleW4zicLKsjIyOXFBYWQkSE8oXMyMjI1JUrV26WlJT4XFcFRKSvr68qKSnp07i4OMVLge7ubhyq/sEwzA7sgvGCwdMV4O9sSKSUfm42m7s5jsPodKelpS3ZujXgosSt+8WLFy8rKipi/bOtJiAYjUuXLmEkUktLS3GK+xPORbPxXkHG3Wp4wezevXuJUlTmBAgesp6enr24naxWazchRNNtpArAXjCVW7Zs+QyzmT8FBXLixAmfPT02Nlak0+lwrwbcnA0PD4+fO3dukafdx2jMOWHf1NLS0puWlja4Zs2agJFgfHz8q8OHD6fU1tb6+E3wFmOmN5guZVmuVlptQkijKIplgiBgxXZfvM0DSTzPcxzH4dkJuMiglF53OBw7AvzW6/WYNqeJYRhsH8pkWQ5IlwzDXCgtLRVdLhd+dJk3wlme4zj0AdOyDzEM0yuKYqW/35pmdtQ4F21/uBVgWTbWaDS6LzXUkmYgDQ0N+YsXL76s1sBs+PCcYDrWIqsZyOnTpyvT09PxXnfe6PXr1wX79u3T9PVrToBg24DNX7BqHAoxyvpflWJRPnbsGI7AqmlOgDQ3N7t7pGB3t6G8QVn/vukbA9LU1HQ9Nzd3W1JS0gLVS+hhRFn/vukbA4Lp8vz586PB+rNQ4FDWv2/6PxAt20Epa/1PRuT48eMfJicnuz8jeOnAgQPk7NmzAzExMZq+BKM8yvr3TUNDQx+dOnWqXssCa85aHMfh8OQzf0uSRLBlmE03jLJK/Z4oivNbEL81QLSE+7/J+x90qxG2fEAhBQAAAABJRU5ErkJggg==;dashed=1;fontSize=14;" vertex="1" parent="1">
          <mxGeometry x="90" y="170" width="50" height="50" as="geometry" />
        </mxCell>
        <mxCell id="s9gYU_3_RzJb2mR_KAjM-26" style="edgeStyle=orthogonalEdgeStyle;rounded=0;orthogonalLoop=1;jettySize=auto;html=1;entryX=0;entryY=0.596;entryDx=0;entryDy=0;entryPerimeter=0;fontSize=14;" edge="1" parent="1" source="s9gYU_3_RzJb2mR_KAjM-9" target="s9gYU_3_RzJb2mR_KAjM-11">
          <mxGeometry relative="1" as="geometry" />
        </mxCell>
        <mxCell id="s9gYU_3_RzJb2mR_KAjM-9" value="BU管理员" style="shape=image;verticalLabelPosition=bottom;verticalAlign=top;imageAspect=0;aspect=fixed;image=data:image/png,iVBORw0KGgoAAAANSUhEUgAAADIAAAAyCAYAAAAeP4ixAAAIxUlEQVRoQ+1ZfUwU6Rl/3hlhQYzKp+ihUjGVJlYkhsSPNEqtBK6wO8vObqWcgHJHa815kFgT48dRP/4xTY5rS4OWUgGhKTvrzqw0eGAiNippjJF6aUpiNKgcAp6iIqSy7LzNs9kl7O7s7gxCL730+Wdh5vn6vc/7Ph/vEPiWEFGDw2q15hBCfkII2UUp1RFC/kYpvcTz/J/VyKvlEQThAwAwAsAPAODfANDFsuxfjEZjZzgdIYGIovh9p9P5a0JIThBFLyilH5jN5o5whkK9t1qtBkJIEwAsDsL3hSzLv7RYLF8G0xMUiM1mS6GUouDScE5ipEwm09VwfErvBUF4HwD+Gk6WEDIKABtMJtOAEm8oIA2U0r3hDHje/53n+c0qeX3YBEH4GgDiVco28DxfrhqIzWZbTSntV6nczUYpLTCbze1aZDxbStQiI8vyaovF8thfRjEiNpvtY0rpb7QYAIA/8jz/oRYZq9XaQAhRG3W3akLIQZPJ9FtVQBobG7tjYmK2a3HK6XQOFhUVvadFpqWlZVin0yVpkXn79m1HcXExnisfUoxITU3NQEpKiianXr16NVVeXh6hxan6+nq6dGnYXOKjcnBw8MHBgwfXqgJy9OjRLzMzM9drcer+/fsTR44cidEic+bMGbpu3TotInDv3r2ekydPblUFpLi4uNVoNBZpsXDt2rWB2tralTNlBEHgCCEZ+EyW5V6z2SzNfL9///7RnTt3agqJKIr1Fy9e/EgVEIPB8LOsrKy69PR0VViGhoagq6urWZKkEhSw2WxllNLPFGoQZsIqnufdmcpgMFh37drFJycnq7LT19cHt2/fLpUkCYtn+DOSn5//XnR09EB+fj7ExITfLR0dHfDs2TOLw+Gw2my2Sg+IoM5hpjKZTBcMBkNJYmJiY25ublgg4+Pj0N7eDlNTUwl2u/25KiCe1WpauHDhnk2bNkFqaqqioeHhYbh79y6CeCtJUpTVat1BCLkW1isAYFn2O0ajsd9gMNDExETIzMyEZcuWKYr29/fDnTt3YGJi4pwkST9XYgpa2Y1G43dlWf4XADDx8fFuMMuXLweGYWBkZAQeP34Mg4ODbp3YUIqi2CYIAm4ZgxogANDI83yZwWDAOtKAMitWrIBVq1a5AblcLnj69CkgiOfP3QEYc7lc32tvb/9KExBPVH4EAM0AEHQTU0orHA7HH5BfEASqEgSyveR5Phb/4DguZAGmlD5kWbbUbrffCKZfVRuv1+srCCGYxXZ4FI0AwOeEkN+LovgSn1VXVzPr1693aQACPM9P29fr9csIIb8AgAMzeq9OSmmrw+FoDKdXFRCvkry8PJ1Op4v2Oj9TOTpSUlIyFM6g973T6YSioiIG2zR/mYKCgoSoqKhRq9WqemEUgdjt9lSn07maZVlvBEL59wgzUF5eXmJhYeFIbKx7t4SlJ0+eQFVVlRtIW1vbRgBYEkqIYZiNWIsiIiIeYZLw5/UB4sn/nwKAcppSttTL83wmvjp06NDE5s2bo8OiAICrV69+XVdXl+g5W7g9QwLx04lAqnmen95y00A0Zhwfvd5Uqtfr67Ozs8tXrvQp8AG4Hjx4ALdu3aqTJGk/RoNhmLtqwCvwiDzP42gMbiCCIFwAgNJZKsNZ5Fdms7m6oKBgO8Mw3VlZWRCsK/BUZ0zjW+12e48gCDUA8MlsbQPABZ7n9xItRSyYMUrp6wULFmTg3uU4ro1SasazsnbtWvCeGSyeGIk3b95g3WkQRbH8HaMx7Q6lNJu8azRmgOtlWTa7tbV1YnJy8ncAENDYeXhrJUn62G63L3G5XNgF4EF/V2okbW1tbxiGCd9QqTOFYIwYGb1en0kI+Sml9IcMw7gopV2yLLdevnz5n5gVXS6XfY5A4NYew4hoqcaq4FBKayiljRaLpXemAAKYmpr6hBBSqUqRBqZ5ATLT/sOHD3+8aNGisfj4+E6WZaM0+KaJ9Z2BeA8x/uJBDihUhGTjM0ppQFeMzWFcXBykpaVNJwVN3s9gDgCCmQUHnXBzCM4HN2/eBAQQikgIIDPlENS2bdtU2UUfN2zY4GM2AEhnZydkZGQEnQ1QenR0FJBvcnIS/31ECME61A0A/aIoBrQPHMfhOKuUnbCD2EgpLcPKHhkZCTk5OSGjgwuHtvfs2RMayI0bN75IT0/fnpCQoLifvZPa5OTkKzy0oigiCDdhTaKUqk4eFovluleW4zicLKsjIyOXFBYWQkSE8oXMyMjI1JUrV26WlJT4XFcFRKSvr68qKSnp07i4OMVLge7ubhyq/sEwzA7sgvGCwdMV4O9sSKSUfm42m7s5jsPodKelpS3ZujXgosSt+8WLFy8rKipi/bOtJiAYjUuXLmEkUktLS3GK+xPORbPxXkHG3Wp4wezevXuJUlTmBAgesp6enr24naxWazchRNNtpArAXjCVW7Zs+QyzmT8FBXLixAmfPT02Nlak0+lwrwbcnA0PD4+fO3dukafdx2jMOWHf1NLS0puWlja4Zs2agJFgfHz8q8OHD6fU1tb6+E3wFmOmN5guZVmuVlptQkijKIplgiBgxXZfvM0DSTzPcxzH4dkJuMiglF53OBw7AvzW6/WYNqeJYRhsH8pkWQ5IlwzDXCgtLRVdLhd+dJk3wlme4zj0AdOyDzEM0yuKYqW/35pmdtQ4F21/uBVgWTbWaDS6LzXUkmYgDQ0N+YsXL76s1sBs+PCcYDrWIqsZyOnTpyvT09PxXnfe6PXr1wX79u3T9PVrToBg24DNX7BqHAoxyvpflWJRPnbsGI7AqmlOgDQ3N7t7pGB3t6G8QVn/vukbA9LU1HQ9Nzd3W1JS0gLVS+hhRFn/vukbA4Lp8vz586PB+rNQ4FDWv2/6PxAt20Epa/1PRuT48eMfJicnuz8jeOnAgQPk7NmzAzExMZq+BKM8yvr3TUNDQx+dOnWqXssCa85aHMfh8OQzf0uSRLBlmE03jLJK/Z4oivNbEL81QLSE+7/J+x90qxG2fEAhBQAAAABJRU5ErkJggg==;dashed=1;fontSize=14;" vertex="1" parent="1">
          <mxGeometry x="90" y="390" width="50" height="50" as="geometry" />
        </mxCell>
        <mxCell id="s9gYU_3_RzJb2mR_KAjM-11" value="" style="rounded=0;whiteSpace=wrap;html=1;dashed=1;fontSize=14;" vertex="1" parent="1">
          <mxGeometry x="300" y="100" width="150" height="530" as="geometry" />
        </mxCell>
        <mxCell id="s9gYU_3_RzJb2mR_KAjM-12" value="Web管理平台" style="text;html=1;strokeColor=none;fillColor=none;align=center;verticalAlign=middle;whiteSpace=wrap;rounded=0;dashed=1;fontSize=14;" vertex="1" parent="1">
          <mxGeometry x="310" y="120" width="90" as="geometry" />
        </mxCell>
        <mxCell id="s9gYU_3_RzJb2mR_KAjM-13" value="租户管理" style="rounded=0;whiteSpace=wrap;html=1;fontSize=14;" vertex="1" parent="1">
          <mxGeometry x="318.75" y="145" width="111.25" height="30" as="geometry" />
        </mxCell>
        <mxCell id="s9gYU_3_RzJb2mR_KAjM-14" value="系统监控" style="rounded=0;whiteSpace=wrap;html=1;fontSize=14;" vertex="1" parent="1">
          <mxGeometry x="318.75" y="240" width="111.25" height="30" as="geometry" />
        </mxCell>
        <mxCell id="s9gYU_3_RzJb2mR_KAjM-15" value="API管理" style="rounded=0;whiteSpace=wrap;html=1;fontSize=14;" vertex="1" parent="1">
          <mxGeometry x="318.75" y="290" width="111.25" height="30" as="geometry" />
        </mxCell>
        <mxCell id="s9gYU_3_RzJb2mR_KAjM-16" value="服务路由" style="rounded=0;whiteSpace=wrap;html=1;fontSize=14;" vertex="1" parent="1">
          <mxGeometry x="318.75" y="337" width="111.25" height="30" as="geometry" />
        </mxCell>
        <mxCell id="s9gYU_3_RzJb2mR_KAjM-17" value="健康检查" style="rounded=0;whiteSpace=wrap;html=1;fontSize=14;" vertex="1" parent="1">
          <mxGeometry x="318.75" y="432.5" width="111.25" height="30" as="geometry" />
        </mxCell>
        <mxCell id="s9gYU_3_RzJb2mR_KAjM-18" value="故障转移" style="rounded=0;whiteSpace=wrap;html=1;fontSize=14;" vertex="1" parent="1">
          <mxGeometry x="318.75" y="482" width="111.25" height="30" as="geometry" />
        </mxCell>
        <mxCell id="s9gYU_3_RzJb2mR_KAjM-19" value="审计日志" style="rounded=0;whiteSpace=wrap;html=1;fontSize=14;" vertex="1" parent="1">
          <mxGeometry x="318.75" y="532.5" width="111.25" height="30" as="geometry" />
        </mxCell>
        <mxCell id="s9gYU_3_RzJb2mR_KAjM-20" value="访问日志" style="rounded=0;whiteSpace=wrap;html=1;fontSize=14;" vertex="1" parent="1">
          <mxGeometry x="318.75" y="582.5" width="111.25" height="30" as="geometry" />
        </mxCell>
        <mxCell id="s9gYU_3_RzJb2mR_KAjM-21" value="角色管理" style="rounded=0;whiteSpace=wrap;html=1;fontSize=14;" vertex="1" parent="1">
          <mxGeometry x="318.75" y="190" width="111.25" height="30" as="geometry" />
        </mxCell>
        <mxCell id="s9gYU_3_RzJb2mR_KAjM-24" value="插件配置" style="rounded=0;whiteSpace=wrap;html=1;fontSize=14;" vertex="1" parent="1">
          <mxGeometry x="318.75" y="383" width="111.25" height="30" as="geometry" />
        </mxCell>
        <mxCell id="s9gYU_3_RzJb2mR_KAjM-27" value="API服务" style="rounded=0;whiteSpace=wrap;html=1;fontSize=14;" vertex="1" parent="1">
          <mxGeometry x="582.5" y="185" width="108" height="32" as="geometry" />
        </mxCell>
        <mxCell id="s9gYU_3_RzJb2mR_KAjM-28" value="" style="rounded=0;whiteSpace=wrap;html=1;fontSize=14;dashed=1;" vertex="1" parent="1">
          <mxGeometry x="560" y="250" width="150" height="180" as="geometry" />
        </mxCell>
        <mxCell id="s9gYU_3_RzJb2mR_KAjM-29" value="多租户" style="text;html=1;strokeColor=none;fillColor=none;align=center;verticalAlign=middle;whiteSpace=wrap;rounded=0;dashed=1;fontSize=14;" vertex="1" parent="1">
          <mxGeometry x="570" y="260" width="50" height="20" as="geometry" />
        </mxCell>
        <mxCell id="s9gYU_3_RzJb2mR_KAjM-31" value="出行BU" style="rounded=0;whiteSpace=wrap;html=1;fontSize=14;" vertex="1" parent="1">
          <mxGeometry x="582.5" y="290" width="108" height="32" as="geometry" />
        </mxCell>
        <mxCell id="s9gYU_3_RzJb2mR_KAjM-33" value="三户BU" style="rounded=0;whiteSpace=wrap;html=1;fontSize=14;" vertex="1" parent="1">
          <mxGeometry x="582.5" y="338" width="108" height="32" as="geometry" />
        </mxCell>
        <mxCell id="s9gYU_3_RzJb2mR_KAjM-34" value="...BU" style="rounded=0;whiteSpace=wrap;html=1;fontSize=14;" vertex="1" parent="1">
          <mxGeometry x="582.5" y="389" width="108" height="32" as="geometry" />
        </mxCell>
        <mxCell id="s9gYU_3_RzJb2mR_KAjM-37" value="中心网关" style="text;html=1;strokeColor=none;fillColor=none;align=center;verticalAlign=middle;whiteSpace=wrap;rounded=0;dashed=1;fontSize=14;fontStyle=1" vertex="1" parent="1">
          <mxGeometry x="550" y="110" width="70" height="20" as="geometry" />
        </mxCell>
        <mxCell id="s9gYU_3_RzJb2mR_KAjM-38" value="" style="rounded=0;whiteSpace=wrap;html=1;dashed=1;fontSize=14;" vertex="1" parent="1">
          <mxGeometry x="740" y="150" width="310" height="280" as="geometry" />
        </mxCell>
        <mxCell id="s9gYU_3_RzJb2mR_KAjM-39" value="" style="rounded=0;whiteSpace=wrap;html=1;dashed=1;fontSize=14;" vertex="1" parent="1">
          <mxGeometry x="740" y="510" width="330" height="120" as="geometry" />
        </mxCell>
        <mxCell id="s9gYU_3_RzJb2mR_KAjM-40" value="DMCC" style="text;html=1;strokeColor=none;fillColor=none;align=center;verticalAlign=middle;whiteSpace=wrap;rounded=0;dashed=1;fontSize=14;fontStyle=1" vertex="1" parent="1">
          <mxGeometry x="770" y="522.5" width="40" height="20" as="geometry" />
        </mxCell>
        <mxCell id="s9gYU_3_RzJb2mR_KAjM-43" value="资源" style="text;html=1;strokeColor=none;fillColor=none;align=center;verticalAlign=middle;whiteSpace=wrap;rounded=0;dashed=1;fontSize=14;fontStyle=1" vertex="1" parent="1">
          <mxGeometry x="550" y="522.5" width="40" height="20" as="geometry" />
        </mxCell>
        <mxCell id="s9gYU_3_RzJb2mR_KAjM-45" value="配置管理" style="rounded=0;whiteSpace=wrap;html=1;fontSize=14;" vertex="1" parent="1">
          <mxGeometry x="790" y="562" width="89" height="45" as="geometry" />
        </mxCell>
        <mxCell id="s9gYU_3_RzJb2mR_KAjM-46" value="插件管理" style="rounded=0;whiteSpace=wrap;html=1;fontSize=14;" vertex="1" parent="1">
          <mxGeometry x="942" y="562" width="89" height="45" as="geometry" />
        </mxCell>
        <mxCell id="s9gYU_3_RzJb2mR_KAjM-47" value="服务配置" style="rounded=0;whiteSpace=wrap;html=1;fontSize=14;verticalAlign=middle;horizontal=1;" vertex="1" parent="1">
          <mxGeometry x="770" y="205" width="110" height="50" as="geometry" />
        </mxCell>
        <mxCell id="s9gYU_3_RzJb2mR_KAjM-48" value="API服务配置" style="text;html=1;strokeColor=none;fillColor=none;align=center;verticalAlign=middle;whiteSpace=wrap;rounded=0;fontSize=14;" vertex="1" parent="1">
          <mxGeometry x="750" y="165" width="90" height="20" as="geometry" />
        </mxCell>
        <mxCell id="s9gYU_3_RzJb2mR_KAjM-49" value="服务发布" style="rounded=0;whiteSpace=wrap;html=1;fontSize=14;verticalAlign=middle;horizontal=1;" vertex="1" parent="1">
          <mxGeometry x="921" y="205" width="110" height="50" as="geometry" />
        </mxCell>
        <mxCell id="s9gYU_3_RzJb2mR_KAjM-50" value="上游配置" style="rounded=0;whiteSpace=wrap;html=1;fontSize=14;verticalAlign=middle;horizontal=1;" vertex="1" parent="1">
          <mxGeometry x="770" y="281" width="110" height="50" as="geometry" />
        </mxCell>
        <mxCell id="s9gYU_3_RzJb2mR_KAjM-51" value="健康检查" style="rounded=0;whiteSpace=wrap;html=1;fontSize=14;verticalAlign=middle;horizontal=1;" vertex="1" parent="1">
          <mxGeometry x="921" y="280" width="110" height="50" as="geometry" />
        </mxCell>
        <mxCell id="s9gYU_3_RzJb2mR_KAjM-52" value="故障转移" style="rounded=0;whiteSpace=wrap;html=1;fontSize=14;verticalAlign=middle;horizontal=1;" vertex="1" parent="1">
          <mxGeometry x="770" y="358" width="110" height="50" as="geometry" />
        </mxCell>
        <mxCell id="s9gYU_3_RzJb2mR_KAjM-53" value="服务路由" style="rounded=0;whiteSpace=wrap;html=1;fontSize=14;verticalAlign=middle;horizontal=1;" vertex="1" parent="1">
          <mxGeometry x="921" y="358" width="110" height="50" as="geometry" />
        </mxCell>
        <mxCell id="s9gYU_3_RzJb2mR_KAjM-56" value="" style="shape=flexArrow;endArrow=classic;startArrow=classic;html=1;fontSize=28;entryX=-0.002;entryY=0.431;entryDx=0;entryDy=0;entryPerimeter=0;" edge="1" parent="1" target="s9gYU_3_RzJb2mR_KAjM-2">
          <mxGeometry width="50" height="50" relative="1" as="geometry">
            <mxPoint x="450" y="250" as="sourcePoint" />
            <mxPoint x="520" y="250" as="targetPoint" />
          </mxGeometry>
        </mxCell>
        <mxCell id="s9gYU_3_RzJb2mR_KAjM-57" value="" style="shape=flexArrow;endArrow=classic;startArrow=classic;html=1;fontSize=28;entryX=-0.002;entryY=0.431;entryDx=0;entryDy=0;entryPerimeter=0;" edge="1" parent="1">
          <mxGeometry width="50" height="50" relative="1" as="geometry">
            <mxPoint x="639.5" y="512" as="sourcePoint" />
            <mxPoint x="639.5" y="452.8499999999999" as="targetPoint" />
          </mxGeometry>
        </mxCell>
        <mxCell id="s9gYU_3_RzJb2mR_KAjM-58" value="" style="shape=flexArrow;endArrow=classic;startArrow=classic;html=1;fontSize=28;entryX=-0.002;entryY=0.431;entryDx=0;entryDy=0;entryPerimeter=0;" edge="1" parent="1">
          <mxGeometry width="50" height="50" relative="1" as="geometry">
            <mxPoint x="904.5" y="509.15" as="sourcePoint" />
            <mxPoint x="904.5" y="449.9999999999999" as="targetPoint" />
          </mxGeometry>
        </mxCell>
      </root>
    </mxGraphModel>
  </diagram>
</mxfile>
